# xmcd
#
# Track frame offsets:
#	150
#	12300
#	27787
#	41074
#	59400
#	71587
#	87100
#	99150
#	113325
#	132825
#	148125
#
# Disc length: 2148 seconds
#
# Revision: 1
# Processed by: cddbd v1.5.2PL0 Copyright (c) Steve Scherf et al.
# Submitted via: audiograbber 1.83.01
#
DISCID=8a08620b
DTITLE=Online - Come Online
DYEAR=2008
DGENRE=Country
TTITLE0=Come on everybody praise the Lord
TTITLE1=That's all that matters to me
TTITLE2=Keep my eyes open
TTITLE3=Es nöis Füür
TTITLE4=No greater love
TTITLE5=The man on the mule
TTITLE6=There's still power in the blood
TTITLE7=Power on his name
TTITLE8=Yes I know
TTITLE9=I saw the light
TTITLE10=Down to the river to pray
EXTD=www.comeonline.ch
EXTT0=
EXTT1=
EXTT2=
EXTT3=
EXTT4=
EXTT5=
EXTT6=
EXTT7=
EXTT8=
EXTT9=
EXTT10=
PLAYORDER=
